solid test
	facet normal 0 0 -100
		outer loop
			vertex 10 0 0
			vertex 10 10 0
			vertex 20 10 0
		endloop
	endfacet
	facet normal 0 -0 -100
		outer loop
			vertex 20 10 0
			vertex 20 0 0
			vertex 10 0 0
		endloop
	endfacet
	facet normal 0 0 -100
		outer loop
			vertex 10 0 10
			vertex 10 10 10
			vertex 20 10 10
		endloop
	endfacet
	facet normal 0 -0 -100
		outer loop
			vertex 10 0 10
			vertex 20 0 10
			vertex 20 10 10
		endloop
	endfacet
	facet normal 0 -100 0
		outer loop
			vertex 20 10 10
			vertex 10 10 0
			vertex 20 10 0
		endloop
	endfacet
	facet normal -0 -100 0
		outer loop
			vertex 10 10 0
			vertex 10 10 10
			vertex 20 10 10
		endloop
	endfacet
	facet normal 0 -100 0
		outer loop
			vertex 10 0 0
			vertex 20 0 0
			vertex 20 0 10
		endloop
	endfacet
	facet normal -0 -100 0
		outer loop
			vertex 10 0 0
			vertex 10 0 10
			vertex 20 0 10
		endloop
	endfacet
	facet normal -100 0 0
		outer loop
			vertex 20 10 0
			vertex 20 0 0
			vertex 20 0 10
		endloop
	endfacet
	facet normal -100 0 0
		outer loop
			vertex 20 0 10
			vertex 20 10 10
			vertex 20 10 0
		endloop
	endfacet
	facet normal 100 0 0
		outer loop
			vertex 10 0 0
			vertex 10 10 0
			vertex 10 10 10
		endloop
	endfacet
	facet normal 100 0 0
		outer loop
			vertex 10 0 0
			vertex 10 0 10
			vertex 10 10 10
		endloop
	endfacet
	facet normal 0 0 -5.29007
		outer loop
			vertex 103 0 10
			vertex 100 0 10
			vertex 102.427 1.76336 10
		endloop
	endfacet
	facet normal 0 0 -5.29007
		outer loop
			vertex 103 0 0
			vertex 100 0 0
			vertex 102.427 1.76336 0
		endloop
	endfacet
	facet normal -16.6336 -5.72949 0
		outer loop
			vertex 103 0 10
			vertex 102.427 1.76336 10
			vertex 103 0 0
		endloop
	endfacet
	facet normal -16.6336 -5.72949 0
		outer loop
			vertex 103 0 0
			vertex 102.427 1.76336 10
			vertex 102.427 1.76336 0
		endloop
	endfacet
	facet normal -0 0 -5.29007
		outer loop
			vertex 102.427 1.76336 10
			vertex 100 0 10
			vertex 100.927 2.85317 10
		endloop
	endfacet
	facet normal -0 0 -5.29007
		outer loop
			vertex 102.427 1.76336 0
			vertex 100 0 0
			vertex 100.927 2.85317 0
		endloop
	endfacet
	facet normal -9.89814 -15 0
		outer loop
			vertex 102.427 1.76336 10
			vertex 100.927 2.85317 10
			vertex 102.427 1.76336 0
		endloop
	endfacet
	facet normal -9.89814 -15 0
		outer loop
			vertex 102.427 1.76336 0
			vertex 100.927 2.85317 10
			vertex 100.927 2.85317 0
		endloop
	endfacet
	facet normal -0 0 -5.29007
		outer loop
			vertex 100.927 2.85317 10
			vertex 100 0 10
			vertex 99.0729 2.85317 10
		endloop
	endfacet
	facet normal -0 0 -5.29007
		outer loop
			vertex 100.927 2.85317 0
			vertex 100 0 0
			vertex 99.0729 2.85317 0
		endloop
	endfacet
	facet normal 1 -18.541 0
		outer loop
			vertex 100.927 2.85317 10
			vertex 99.0729 2.85317 10
			vertex 100.927 2.85317 0
		endloop
	endfacet
	facet normal 1 -18.541 0
		outer loop
			vertex 100.927 2.85317 0
			vertex 99.0729 2.85317 10
			vertex 99.0729 2.85317 0
		endloop
	endfacet
	facet normal 0 -0 -5.29007
		outer loop
			vertex 99.0729 2.85317 10
			vertex 100 0 10
			vertex 97.5729 1.76336 10
		endloop
	endfacet
	facet normal 0 -0 -5.29007
		outer loop
			vertex 99.0729 2.85317 0
			vertex 100 0 0
			vertex 97.5729 1.76336 0
		endloop
	endfacet
	facet normal 11.8981 -15 0
		outer loop
			vertex 99.0729 2.85317 10
			vertex 97.5729 1.76336 10
			vertex 99.0729 2.85317 0
		endloop
	endfacet
	facet normal 11.8981 -15 0
		outer loop
			vertex 99.0729 2.85317 0
			vertex 97.5729 1.76336 10
			vertex 97.5729 1.76336 0
		endloop
	endfacet
	facet normal 0 -0 -5.29007
		outer loop
			vertex 97.5729 1.76336 10
			vertex 100 0 10
			vertex 97 1.60769e-07 10
		endloop
	endfacet
	facet normal 0 -0 -5.29007
		outer loop
			vertex 97.5729 1.76336 0
			vertex 100 0 0
			vertex 97 1.60769e-07 0
		endloop
	endfacet
	facet normal 18.6336 -5.72949 0
		outer loop
			vertex 97.5729 1.76336 10
			vertex 97 1.60769e-07 10
			vertex 97.5729 1.76336 0
		endloop
	endfacet
	facet normal 18.6336 -5.72949 0
		outer loop
			vertex 97.5729 1.76336 0
			vertex 97 1.60769e-07 10
			vertex 97 1.60769e-07 0
		endloop
	endfacet
	facet normal 0 0 -5.29007
		outer loop
			vertex 97 1.60769e-07 10
			vertex 100 0 10
			vertex 97.5729 -1.76336 10
		endloop
	endfacet
	facet normal 0 0 -5.29007
		outer loop
			vertex 97 1.60769e-07 0
			vertex 100 0 0
			vertex 97.5729 -1.76336 0
		endloop
	endfacet
	facet normal 18.6336 5.72949 0
		outer loop
			vertex 97 1.60769e-07 10
			vertex 97.5729 -1.76336 10
			vertex 97 1.60769e-07 0
		endloop
	endfacet
	facet normal 18.6336 5.72949 0
		outer loop
			vertex 97 1.60769e-07 0
			vertex 97.5729 -1.76336 10
			vertex 97.5729 -1.76336 0
		endloop
	endfacet
	facet normal 0 0 -5.29007
		outer loop
			vertex 97.5729 -1.76336 10
			vertex 100 0 10
			vertex 99.0729 -2.85317 10
		endloop
	endfacet
	facet normal 0 0 -5.29007
		outer loop
			vertex 97.5729 -1.76336 0
			vertex 100 0 0
			vertex 99.0729 -2.85317 0
		endloop
	endfacet
	facet normal 11.8981 15 0
		outer loop
			vertex 97.5729 -1.76336 10
			vertex 99.0729 -2.85317 10
			vertex 97.5729 -1.76336 0
		endloop
	endfacet
	facet normal 11.8981 15 0
		outer loop
			vertex 97.5729 -1.76336 0
			vertex 99.0729 -2.85317 10
			vertex 99.0729 -2.85317 0
		endloop
	endfacet
	facet normal 0 0 -5.29007
		outer loop
			vertex 99.0729 -2.85317 10
			vertex 100 0 10
			vertex 100.927 -2.85317 10
		endloop
	endfacet
	facet normal 0 0 -5.29007
		outer loop
			vertex 99.0729 -2.85317 0
			vertex 100 0 0
			vertex 100.927 -2.85317 0
		endloop
	endfacet
	facet normal 1 18.541 0
		outer loop
			vertex 99.0729 -2.85317 10
			vertex 100.927 -2.85317 10
			vertex 99.0729 -2.85317 0
		endloop
	endfacet
	facet normal 1 18.541 0
		outer loop
			vertex 99.0729 -2.85317 0
			vertex 100.927 -2.85317 10
			vertex 100.927 -2.85317 0
		endloop
	endfacet
	facet normal 0 0 -5.29007
		outer loop
			vertex 100.927 -2.85317 10
			vertex 100 0 10
			vertex 102.427 -1.76336 10
		endloop
	endfacet
	facet normal 0 0 -5.29007
		outer loop
			vertex 100.927 -2.85317 0
			vertex 100 0 0
			vertex 102.427 -1.76336 0
		endloop
	endfacet
	facet normal -9.89814 15 0
		outer loop
			vertex 100.927 -2.85317 10
			vertex 102.427 -1.76336 10
			vertex 100.927 -2.85317 0
		endloop
	endfacet
	facet normal -9.89814 15 0
		outer loop
			vertex 100.927 -2.85317 0
			vertex 102.427 -1.76336 10
			vertex 102.427 -1.76336 0
		endloop
	endfacet
	facet normal 0 0 -5.29007
		outer loop
			vertex 102.427 -1.76336 10
			vertex 100 0 10
			vertex 103 -3.21539e-07 10
		endloop
	endfacet
	facet normal 0 0 -5.29007
		outer loop
			vertex 102.427 -1.76336 0
			vertex 100 0 0
			vertex 103 -3.21539e-07 0
		endloop
	endfacet
	facet normal -16.6336 5.72949 0
		outer loop
			vertex 102.427 -1.76336 10
			vertex 103 -3.21539e-07 10
			vertex 102.427 -1.76336 0
		endloop
	endfacet
	facet normal -16.6336 5.72949 0
		outer loop
			vertex 102.427 -1.76336 0
			vertex 103 -3.21539e-07 10
			vertex 103 -3.21539e-07 0
		endloop
	endfacet
endsolid test